<svg width="40" height="43" viewBox="0 0 40 43" fill="none" xmlns="http://www.w3.org/2000/svg">
<path fill-rule="evenodd" clip-rule="evenodd" d="M24.8476 17.7981C23.9936 13.8086 21.8113 10.3469 18.8175 7.94682C18.4059 7.61689 17.979 7.30702 17.5381 7.01859C17.6016 7.51486 17.6292 8.03004 17.6297 8.54539L17.6297 8.55921C17.6297 12.7093 15.5794 16.3586 12.4766 18.4481C10.4995 19.8732 9.19981 22.2707 9.19981 24.9861C9.19981 25.2653 9.21811 25.5446 9.24557 25.8142C9.29133 26.8637 9.59338 27.9422 9.96865 28.7991C11.7992 32.9396 15.4256 35.8186 20.0569 35.8186C20.0649 35.8186 20.0729 35.8186 20.0809 35.8186C20.0885 35.8186 20.0962 35.8186 20.1039 35.8186C20.3271 35.8186 20.5476 35.8064 20.7648 35.7828C22.7893 35.5844 25.016 34.5935 26.5712 33.6032C29.9304 31.4849 31.9998 28.0866 31.9998 23.6669C31.9998 20.2229 30.6387 17.1179 28.446 14.9146C28.3714 14.8396 28.2958 14.7657 28.2193 14.6928C27.8914 14.3806 27.5462 14.0879 27.1854 13.8166C27.2311 14.1055 27.2494 14.3943 27.2494 14.6928C27.2494 14.9294 27.2355 15.1625 27.2084 15.3913C27.0876 16.413 26.7053 17.3486 26.1349 18.1226C25.8349 18.5298 25.4828 18.8923 25.0893 19.1991C25.027 18.7256 24.9461 18.2584 24.8476 17.7981ZM25.2054 33.0201C25.4571 32.8801 25.6986 32.7363 25.9267 32.591L25.9311 32.5882C28.9545 30.6816 30.7998 27.6598 30.7998 23.6669C30.7998 20.8916 29.8264 18.3715 28.228 16.4553C27.8452 17.9464 26.9876 19.2406 25.8272 20.1454L24.1735 21.435L23.8996 19.3559C23.3823 15.4289 21.5043 11.9692 18.797 9.5068C18.5094 13.656 16.3482 17.2799 13.1638 19.432C11.5074 20.6331 10.3998 22.6636 10.3998 24.9861C10.3998 25.2142 10.4148 25.4514 10.4394 25.6926L10.4429 25.7272L10.4444 25.7619C10.4824 26.6335 10.7386 27.5651 11.067 28.3158C11.9753 30.3692 13.3435 32.0471 15.0532 33.1539C14.3893 32.1848 13.9998 31.0116 13.9998 29.7476C13.9998 28.2973 14.5105 26.9683 15.3621 25.9267C15.5562 25.6893 15.768 25.4668 15.9955 25.2612C16.1672 25.1061 16.3478 24.9605 16.5366 24.8255C16.5167 24.9641 16.5068 25.1127 16.5068 25.2612C16.5068 25.6014 16.5677 25.9281 16.6793 26.2303L16.6887 26.2553C16.881 26.7606 17.216 27.196 17.6464 27.5094C17.7124 27.0331 17.8177 26.5696 17.9589 26.1223C18.4203 24.6603 19.265 23.37 20.3725 22.3629C20.4365 22.3047 20.5014 22.2474 20.5672 22.1911C20.8975 21.9082 21.2494 21.6498 21.62 21.4186C21.5902 21.6662 21.5704 21.9237 21.5704 22.1911C21.5704 22.4266 21.5843 22.6589 21.6112 22.8871C21.8221 24.6736 22.8346 26.2109 24.2756 27.133C25.3161 27.8461 25.9998 29.0445 25.9998 30.4013C25.9998 30.5399 25.9899 30.6785 25.98 30.8172C25.9602 31.3421 25.8016 31.8769 25.5935 32.3127C25.4797 32.5578 25.3499 32.7941 25.2054 33.0201ZM20.6257 34.5907C22.3456 34.406 23.8033 33.3186 24.5052 31.8073L24.5106 31.7955C24.6634 31.4755 24.7684 31.1013 24.7808 30.7719L24.7816 30.7518L24.783 30.7317C24.7935 30.5858 24.7998 30.4899 24.7998 30.4013C24.7998 29.463 24.3313 28.6323 23.6107 28.1322C22.1168 27.1698 21.0063 25.6549 20.5714 23.872C19.6562 24.9229 19.0349 26.2314 18.835 27.674L18.56 29.6591L16.94 28.4794C16.5058 28.1633 16.1395 27.7607 15.8646 27.298C15.4415 28.0172 15.1998 28.8539 15.1998 29.7476C15.1998 31.5151 16.1504 33.0632 17.5665 33.906L17.5796 33.9138C18.3091 34.3606 19.1547 34.6144 20.0809 34.6185C20.2586 34.6178 20.4405 34.6082 20.6257 34.5907Z" fill="url(#paint0_linear_363_382)"/>
<path fill-rule="evenodd" clip-rule="evenodd" d="M21.1764 0.48046C20.4458 0.0695015 19.5538 0.0695018 18.8232 0.48046L2.02318 9.93046C1.26747 10.3555 0.799805 11.1552 0.799805 12.0222V30.815C0.799805 31.682 1.26747 32.4817 2.02318 32.9068L18.8232 42.3568C19.5538 42.7677 20.4458 42.7677 21.1764 42.3568L37.9764 32.9068C38.7321 32.4817 39.1998 31.682 39.1998 30.815V12.0222C39.1998 11.1552 38.7321 10.3555 37.9764 9.93046L21.1764 0.48046ZM37.3881 10.9763L20.5881 1.52635C20.2228 1.32087 19.7768 1.32087 19.4115 1.52635L2.61149 10.9764C2.23364 11.1889 1.9998 11.5887 1.9998 12.0222V30.815C1.9998 31.2485 2.23364 31.6483 2.61149 31.8609L19.4115 41.3109C19.7768 41.5163 20.2228 41.5163 20.5881 41.3109L37.3881 31.8609C37.766 31.6483 37.9998 31.2485 37.9998 30.815V12.0222C37.9998 11.5887 37.766 11.1889 37.3881 10.9763Z" fill="url(#paint1_linear_363_382)"/>
<defs>
<linearGradient id="paint0_linear_363_382" x1="0.799805" y1="0.172241" x2="0.799805" y2="42.665" gradientUnits="userSpaceOnUse">
<stop stop-color="#13E5BF"/>
<stop offset="1" stop-color="#01C38D"/>
</linearGradient>
<linearGradient id="paint1_linear_363_382" x1="0.799805" y1="0.172241" x2="0.799805" y2="42.665" gradientUnits="userSpaceOnUse">
<stop stop-color="#13E5BF"/>
<stop offset="1" stop-color="#01C38D"/>
</linearGradient>
</defs>
</svg>
