<svg width="48" height="49" viewBox="0 0 48 49" fill="none" xmlns="http://www.w3.org/2000/svg">
<path d="M44.4077 19.6226C42.2367 10.3354 33.9035 3.41846 23.9547 3.41846C22.0736 3.41846 20.2502 3.66575 18.5153 4.12959L18.5211 4.12566C16.9074 4.55728 15.3721 5.17566 13.939 5.95567C7.55571 9.42504 3.17196 16.1076 2.95882 23.8322L1.96763 21.7812C1.82344 21.4828 1.46469 21.3579 1.16633 21.5021C0.867974 21.6462 0.742995 22.005 0.887181 22.3033L2.94584 26.5632C3.04038 26.7588 3.23327 26.888 3.45013 26.901C3.66699 26.914 3.87395 26.8088 3.99119 26.6259L6.54445 22.6428C6.72328 22.3638 6.6421 21.9927 6.36312 21.8139C6.08415 21.635 5.71303 21.7162 5.5342 21.9952L4.16713 24.1278C4.26791 16.7528 8.42386 10.3059 14.5515 6.98886C17.349 5.47682 20.5516 4.61846 23.9547 4.61846C33.2369 4.61846 41.0276 11.0044 43.173 19.6226L44.4077 19.6226Z" fill="url(#paint0_linear_1_28744)"/>
<path d="M44.8699 22.4406C44.7664 22.2496 44.5677 22.1295 44.3504 22.1266C44.1332 22.1238 43.9314 22.2385 43.8228 22.4267L41.4581 26.5246C41.2925 26.8116 41.3909 27.1785 41.678 27.3442C41.965 27.5098 42.3319 27.4114 42.4975 27.1244L43.751 24.952C43.6477 28.8868 42.3967 32.5358 40.3205 35.5764C38.3581 38.4464 35.6577 40.7783 32.4843 42.2924L32.462 42.3108C29.8844 43.539 26.9995 44.2264 23.954 44.2264C14.6921 44.2264 6.91518 37.8684 4.74981 29.2788L3.51423 29.2788C5.70578 38.5375 14.0254 45.4264 23.954 45.4264C31.1825 45.4264 37.5582 41.7749 41.3371 36.2158C43.5085 33.0256 44.8216 29.2118 44.9547 25.1145L46.0702 27.1717C46.2281 27.463 46.5923 27.5711 46.8836 27.4132C47.1749 27.2552 47.283 26.891 47.1251 26.5997L44.8699 22.4406Z" fill="url(#paint1_linear_1_28744)"/>
<path fill-rule="evenodd" clip-rule="evenodd" d="M24.4479 11.7451C24.1703 11.5868 23.8296 11.5868 23.552 11.7451L13.1095 17.6994C12.8273 17.8603 12.6531 18.1602 12.6531 18.485V30.3526C12.6531 30.6775 12.8273 30.9774 13.1095 31.1383L23.552 37.0926C23.8296 37.2509 24.1703 37.2509 24.4479 37.0926L34.8904 31.1383C35.1726 30.9774 35.3468 30.6775 35.3468 30.3526V18.485C35.3468 18.1602 35.1726 17.8603 34.8904 17.6994L24.4479 11.7451ZM23.0566 10.8764C23.6413 10.543 24.3586 10.543 24.9433 10.8764L35.3857 16.8307C35.98 17.1695 36.3468 17.801 36.3468 18.485V30.3526C36.3468 31.0367 35.98 31.6682 35.3857 32.007L24.9433 37.9613C24.3586 38.2946 23.6413 38.2946 23.0566 37.9613L12.6142 32.007C12.0199 31.6682 11.6531 31.0367 11.6531 30.3526V18.485C11.6531 17.801 12.0199 17.1695 12.6142 16.8307L23.0566 10.8764Z" fill="url(#paint2_linear_1_28744)"/>
<path fill-rule="evenodd" clip-rule="evenodd" d="M24 41.0408C33.1803 41.0408 40.6224 33.5988 40.6224 24.4185C40.6224 15.2382 33.1803 7.79614 24 7.79614C14.8198 7.79614 7.37769 15.2382 7.37769 24.4185C7.37769 33.5988 14.8198 41.0408 24 41.0408ZM22.9629 9.53004C23.6057 9.16349 24.3943 9.16349 25.0371 9.53004L36.5183 16.0765C37.1716 16.4491 37.5749 17.1434 37.5749 17.8955V30.9435C37.5749 31.6956 37.1716 32.3899 36.5183 32.7624L25.0371 39.3089C24.3943 39.6754 23.6057 39.6754 22.9629 39.3089L11.4817 32.7624C10.8284 32.3899 10.425 31.6956 10.425 30.9435V17.8955C10.425 17.1434 10.8284 16.4491 11.4817 16.0765L22.9629 9.53004Z" fill="#13E5BF" fill-opacity="0.1"/>
<path fill-rule="evenodd" clip-rule="evenodd" d="M26.1934 15.22L24.6844 16.0765V23.3523L25.5083 23.8204V18.2795L28.3377 19.8857L28.3403 19.8843L28.8897 20.1956L29.3484 19.9368V19.4996L25.5083 17.3228V16.5654L26.1934 16.1768L30.1705 18.4346V20.4441L28.2611 21.5214L28.1971 21.4898C28.0806 21.4325 27.9602 21.4032 27.8394 21.4032C27.3847 21.4032 27.0153 21.7776 27.0153 22.2379C27.0153 22.6979 27.3847 23.0724 27.8394 23.0724C28.2609 23.0724 28.611 22.7501 28.6544 22.3231L28.6615 22.251L30.5883 21.1633L32.3754 22.1782V26.6665L30.5863 27.6809L23.3156 23.5526V16.0767L21.8064 15.22L17.0058 17.9456V20.4326L14.8005 21.6828V27.1499L17.0058 28.402V30.8933L21.8064 33.6189L23.3156 32.7622V25.4706L22.4915 25.0027V30.5594L19.1102 28.6431L18.6516 28.9019V29.3391L22.4915 31.5161V32.2732L21.8064 32.6621L17.8297 30.4043V28.3946L19.7389 27.3177L19.803 27.3491C19.9197 27.4066 20.0398 27.4355 20.1606 27.4355C20.6151 27.4355 20.9847 27.0613 20.9847 26.601C20.9847 26.1407 20.6151 25.7665 20.1606 25.7665C19.7393 25.7665 19.3892 26.0886 19.346 26.516L19.3385 26.5881L17.4117 27.6754L15.6246 26.6609V22.1724L17.4137 21.1579L24.6844 25.2863V32.7622L26.1934 33.6189L30.9944 30.8933V28.4061L33.1995 27.1558V21.6892L30.9944 20.4375V17.9456L26.1934 15.22ZM17.8296 18.4346L21.8063 16.1768L22.4914 16.5658V17.3226L17.8296 19.9653V18.4346ZM22.4915 18.279L18.2572 20.68L22.4915 23.0843V18.279ZM25.5083 25.7543L29.7429 28.1592L25.5083 30.56V25.7543ZM25.5083 31.5164V32.2732L26.1934 32.662L30.1705 30.4042V28.8735L25.5083 31.5164Z" fill="url(#paint3_linear_1_28744)"/>
<defs>
<linearGradient id="paint0_linear_1_28744" x1="22.6175" y1="30.2625" x2="22.6175" y2="3.41846" gradientUnits="userSpaceOnUse">
<stop stop-color="#13E5BF"/>
<stop offset="1" stop-color="#01C38D"/>
</linearGradient>
<linearGradient id="paint1_linear_1_28744" x1="25.356" y1="48.7605" x2="25.356" y2="22.1266" gradientUnits="userSpaceOnUse">
<stop stop-color="#13E5BF"/>
<stop offset="1" stop-color="#01C38D"/>
</linearGradient>
<linearGradient id="paint2_linear_1_28744" x1="39.8804" y1="24.4188" x2="11.6531" y2="24.4188" gradientUnits="userSpaceOnUse">
<stop stop-color="#13E5BF"/>
<stop offset="1" stop-color="#01C38D"/>
</linearGradient>
<linearGradient id="paint3_linear_1_28744" x1="14.8005" y1="15.22" x2="14.8005" y2="33.6189" gradientUnits="userSpaceOnUse">
<stop stop-color="#13E5BF"/>
<stop offset="1" stop-color="#01C38D"/>
</linearGradient>
</defs>
</svg>
