<svg width="48" height="49" viewBox="0 0 48 49" fill="none" xmlns="http://www.w3.org/2000/svg">
<path fill-rule="evenodd" clip-rule="evenodd" d="M18.9792 6.61694H10.3874C9.93605 6.61694 9.50933 6.81071 9.22669 7.14438L2.32531 15.8607C2.09283 16.1352 1.98659 17.0691 2.00146 17.3992H16.3274L18.9792 6.61694Z" fill="#13E5BF" fill-opacity="0.2"/>
<path fill-rule="evenodd" clip-rule="evenodd" d="M28.1499 6.61694H36.7417C37.1931 6.61694 37.6198 6.81071 37.9025 7.14438L44.8038 15.8607C45.0363 16.1352 45.1426 17.0691 45.1277 17.3992H30.8017L28.1499 6.61694Z" fill="#13E5BF" fill-opacity="0.2"/>
<path fill-rule="evenodd" clip-rule="evenodd" d="M22.7244 40.9316C22.9544 41.1748 23.2535 41.3143 23.5646 41.3601L16.3764 16.8005H2.59912C2.61303 17.1151 2.73662 17.4253 2.97152 17.6724L22.7244 40.9316Z" fill="#13E5BF" fill-opacity="0.2"/>
<path fill-rule="evenodd" clip-rule="evenodd" d="M24.4047 40.9316C24.1748 41.1748 23.8756 41.3143 23.5646 41.3601L30.7527 16.8005H44.53C44.5161 17.1151 44.3925 17.4253 44.1576 17.6724L24.4047 40.9316Z" fill="#13E5BF" fill-opacity="0.2"/>
<path fill-rule="evenodd" clip-rule="evenodd" d="M44.7569 17.9986C45.2276 17.4395 45.3119 16.1932 44.8752 15.6025L37.2932 5.99509C37.0242 5.63128 36.6171 5.41931 36.1869 5.41931H10.9391C10.5093 5.41931 10.1021 5.63128 9.83315 5.99509L2.36954 15.6025C1.93243 16.1932 1.89836 17.4395 2.3695 17.9986L22.5162 42.0581C23.0785 42.7247 24.0479 42.7247 24.6102 42.0581L44.7569 17.9986ZM36.3299 6.70733L36.3411 6.72248L43.8218 16.2015H31.1305L28.5974 6.61734H36.1869C36.2145 6.61734 36.273 6.63035 36.3299 6.70733ZM27.3583 6.61734L29.8913 16.2015H17.235L19.768 6.61734H27.3583ZM18.5288 6.61734L15.9958 16.2015H3.42125L10.788 6.7188L10.7965 6.70733C10.8535 6.63019 10.9121 6.61734 10.9391 6.61734H18.5288ZM3.43048 17.3996L22.2865 39.9177L15.8345 17.3996H3.43048ZM24.8397 39.9179L43.6959 17.3996H31.2918L24.8397 39.9179ZM23.5631 40.0239L17.0807 17.3996H30.0455L23.5631 40.0239Z" fill="url(#paint0_linear_1_28712)"/>
<defs>
<linearGradient id="paint0_linear_1_28712" x1="51.3325" y1="23.9887" x2="2.02881" y2="23.9887" gradientUnits="userSpaceOnUse">
<stop stop-color="#13E5BF"/>
<stop offset="1" stop-color="#01C38D"/>
</linearGradient>
</defs>
</svg>
